<svg xmlns="http://www.w3.org/2000/svg" class="svg-icon" style="width: 1em; height: 1em;vertical-align: middle;fill:#ffffff;overflow: hidden;" viewBox="0 0 1024 1024" version="1.1"><path d="M360.08448 352.17408h276.48v40.96h-276.48zM360.08448 458.61376h276.48v40.96h-276.48zM360.08448 567.00416h122.88v40.96h-122.88z" fill=""/><path d="M472.90368 747.52H293.52448V276.48h409.6v223.09376a20.48 20.48 0 0 0 40.96 0V276.48c0-22.58432-18.37568-40.96-40.96-40.96h-409.6c-22.58432 0-40.96 18.37568-40.96 40.96v471.04c0 22.58432 18.37568 40.96 40.96 40.96h179.3792a20.48 20.48 0 0 0 0-40.96z" fill=""/><path d="M765.57312 745.984l-54.7328-55.76192a106.73664 106.73664 0 0 0 16.78336-57.43616c0-59.28448-48.2304-107.52-107.52-107.52s-107.52 48.23552-107.52 107.52 48.2304 107.52 107.52 107.52c23.36256 0 44.94336-7.57248 62.59712-20.2752l53.632 54.64576a20.4288 20.4288 0 0 0 14.6176 6.13376 20.48 20.48 0 0 0 14.62272-34.82624z m-145.46944-46.63808c-36.70016 0-66.56-29.85984-66.56-66.56s29.85984-66.56 66.56-66.56 66.56 29.85984 66.56 66.56-29.85472 66.56-66.56 66.56z" fill=""/></svg>